<svg aria-hidden="true" style="position: absolute; width: 0; height: 0; overflow: hidden;" version="1.1" xmlns="http://www.w3.org/2000/svg" xmlns:xlink="http://www.w3.org/1999/xlink">
<defs>
<symbol id="icon-person-black" viewBox="0 0 32 32">
<path d="M16 16c4.42 0 8-3.58 8-8s-3.58-8-8-8c-4.42 0-8 3.58-8 8s3.58 8 8 8zM16 20c-5.34 0-16 2.68-16 8v2c0 1.1 0.9 2 2 2h28c1.1 0 2-0.9 2-2v-2c0-5.32-10.66-8-16-8z"></path>
</symbol>
<symbol id="icon-phone-black" viewBox="0 0 32 32">
<path d="M27.419 20.852l-4.201-0.48c-1.009-0.116-2.002 0.232-2.713 0.943l-3.044 3.044c-4.681-2.382-8.519-6.203-10.901-10.901l3.060-3.060c0.711-0.711 1.059-1.704 0.943-2.713l-0.48-4.168c-0.198-1.671-1.604-2.928-3.292-2.928h-2.862c-1.869 0-3.424 1.555-3.308 3.424 0.877 14.126 12.174 25.407 26.284 26.284 1.869 0.116 3.424-1.439 3.424-3.308v-2.861c0.016-1.671-1.241-3.077-2.911-3.275z"></path>
</symbol>
<symbol id="icon-email-black" viewBox="0 0 43 32">
<path d="M37.333 0h-32c-2.2 0-3.98 1.8-3.98 4l-0.020 24c0 2.2 1.8 4 4 4h32c2.2 0 4-1.8 4-4v-24c0-2.2-1.8-4-4-4zM36.533 8.5l-14.14 8.84c-0.64 0.4-1.48 0.4-2.12 0l-14.14-8.84c-0.5-0.32-0.8-0.86-0.8-1.44 0-1.34 1.46-2.14 2.6-1.44l13.4 8.38 13.4-8.38c1.14-0.7 2.6 0.1 2.6 1.44 0 0.58-0.3 1.12-0.8 1.44z"></path>
</symbol>
<symbol id="icon-close-black-cross" viewBox="0 0 32 32">
<path d="M32 3.223l-3.223-3.223-12.777 12.777-12.777-12.777-3.223 3.223 12.777 12.777-12.777 12.777 3.223 3.223 12.777-12.777 12.777 12.777 3.223-3.223-12.777-12.777 12.777-12.777z"></path>
</symbol>
<symbol id="icon-envelope" viewBox="0 0 43 32">
<path d="M38.667 0h-34.667c-2.206 0-4 1.794-4 4v24c0 2.206 1.794 4 4 4h34.667c2.206 0 4-1.794 4-4v-24c0-2.206-1.794-4-4-4zM38.667 2.667c0.181 0 0.353 0.038 0.511 0.103l-17.844 15.466-17.844-15.466c0.158-0.066 0.33-0.103 0.511-0.103h34.667zM38.667 29.333h-34.667c-0.736 0-1.333-0.598-1.333-1.333v-22.413l17.793 15.421c0.251 0.217 0.563 0.326 0.874 0.326s0.622-0.108 0.874-0.326l17.793-15.421v22.413c0 0.736-0.598 1.333-1.333 1.333z"></path>
</symbol>
<symbol id="icon-smartphone-1" viewBox="0 0 20 32">
<path d="M17 0h-14c-1.654 0-3 1.346-3 3v26c0 1.654 1.346 3 3 3h14c1.654 0 3-1.346 3-3v-26c0-1.654-1.346-3-3-3zM3 2h14c0.552 0 1 0.448 1 1v21h-16v-21c0-0.552 0.448-1 1-1zM17 30h-14c-0.552 0-1-0.448-1-1v-3h16v3c0 0.552-0.448 1-1 1z"></path>
<path d="M4.707 27.478c0.391 0.365 0.391 0.956 0 1.321s-1.024 0.365-1.414 0c-0.391-0.365-0.391-0.956 0-1.321s1.024-0.365 1.414 0z"></path>
</symbol>
<symbol id="icon-smartphone-2" viewBox="0 0 32 32">
<path d="M25.956 8.25h-3.389v-6.088c0-1.19-0.972-2.162-2.161-2.162h-14.267c-1.19 0-2.161 0.972-2.161 2.162v27.677c0 1.189 0.972 2.162 2.161 2.162h14.267c1.188 0 2.161-0.972 2.161-2.162v-6.95h3.389c1.14 0 2.067-0.921 2.067-2.053v-10.534c0-1.131-0.927-2.053-2.067-2.053zM10.989 1.558h4.564c0.144 0 0.262 0.117 0.262 0.261 0 0.143-0.118 0.261-0.262 0.261h-4.564c-0.144 0-0.261-0.118-0.261-0.261 0-0.144 0.117-0.261 0.261-0.261zM13.272 30.921c-0.596 0-1.081-0.484-1.081-1.082 0-0.597 0.484-1.081 1.081-1.081s1.082 0.484 1.082 1.081c-0 0.598-0.485 1.082-1.082 1.082zM21.062 28.001h-15.581v-24.573h15.581v4.822h-8.907c-1.139 0-2.065 0.922-2.065 2.054v10.534c0 1.132 0.927 2.053 2.065 2.053h1.248v3.529l3.529-3.529h4.13v5.111zM27.108 20.837c0 0.628-0.516 1.138-1.152 1.138h-9.401l-2.236 2.236v-2.236h-2.163c-0.634 0-1.151-0.511-1.151-1.138v-10.534c0-0.628 0.516-1.139 1.151-1.139h13.801c0.634 0 1.152 0.511 1.152 1.139v10.534zM24.822 12.428c0 0.313-0.237 0.565-0.53 0.565h-10.446c-0.292 0-0.53-0.252-0.53-0.565 0-0.311 0.238-0.565 0.53-0.565h10.446c0.292 0 0.53 0.254 0.53 0.565zM24.822 15.493c0 0.313-0.237 0.566-0.53 0.566h-10.446c-0.292 0-0.53-0.253-0.53-0.566 0-0.31 0.238-0.564 0.53-0.564h10.446c0.292-0 0.53 0.253 0.53 0.564zM24.822 18.558c0 0.312-0.237 0.566-0.53 0.566h-10.446c-0.292 0-0.53-0.254-0.53-0.566s0.238-0.564 0.53-0.564h10.446c0.292-0 0.53 0.253 0.53 0.564z"></path>
</symbol>
<symbol id="icon-language" viewBox="0 0 32 32">
<path d="M16 0c-8.836 0-16 7.164-16 16s7.164 16 16 16 16-7.164 16-16-7.164-16-16-16zM29.964 15h-5.38q-0.009-0.692-0.072-1.381c-0.196-2.058-0.698-3.949-1.462-5.7l0.047 0.12c1.464-0.278 2.709-0.605 3.92-1.007l-0.214 0.062c1.786 2.147 2.943 4.874 3.159 7.861l0.003 0.045zM11.068 8.098c1.111 0.201 2.462 0.361 3.833 0.443l0.099 0.005v6.454h-5.583q0.009-0.59 0.063-1.176c0.192-2.196 0.829-4.128 1.588-5.726zM17 2.588c1.147 1.132 2.155 2.4 2.999 3.779l0.049 0.087q-0.949 0.092-1.916 0.125-0.563 0.021-1.133 0.021zM15 2.588v3.953q-1.453-0.089-2.915-0.307c0.234-0.379 0.468-0.726 0.692-1.041 0.693-0.968 1.423-1.819 2.22-2.602l0.003-0.003zM15 17v6.455q-1.688 0.098-3.391 0.359-1.738-3.433-2.101-6.813zM15 25.458v3.542c-0.787-0.968-1.56-2.049-2.265-3.177l-0.079-0.136q1.175-0.157 2.344-0.229zM17 25.396q0.567 0 1.133 0.021c0.446 0.016 0.888 0.043 1.328 0.077-0.815 1.336-1.626 2.481-2.507 3.567l0.047-0.060zM18.204 23.418q-0.601-0.021-1.204-0.022v-6.396h5.491q-0.348 3.262-1.984 6.582-1.139-0.12-2.303-0.163zM17 15v-6.397q0.602 0 1.204-0.022 1.444-0.052 2.851-0.226c0.753 1.588 1.274 3.433 1.46 5.375l0.005 0.068q0.054 0.6 0.063 1.202zM25.238 5.481c-0.8 0.241-1.827 0.48-2.873 0.663l-0.173 0.025c-0.471-0.856-0.931-1.575-1.43-2.264l0.043 0.062c-0.404-0.563-0.802-1.063-1.172-1.492 2.173 0.594 4.054 1.633 5.62 3.019l-0.015-0.013zM12.368 2.476c-0.371 0.432-0.769 0.931-1.172 1.492-0.388 0.531-0.789 1.148-1.158 1.785l-0.055 0.103q-1.408-0.298-2.821-0.714c1.461-1.201 3.204-2.12 5.11-2.644l0.098-0.023zM5.513 6.726q1.769 0.574 3.536 0.973c-0.796 1.728-1.35 3.735-1.556 5.843l-0.006 0.077q-0.063 0.688-0.072 1.381h-5.378c0.23-3.2 1.508-6.063 3.489-8.287l-0.012 0.014zM2.036 17h5.464q0.339 3.58 2.066 7.188c-1.647 0.35-3.004 0.724-4.33 1.167l0.28-0.081c-1.97-2.21-3.25-5.073-3.478-8.228l-0.003-0.045zM7.161 26.858q1.688-0.5 3.375-0.826c0.814 1.396 1.624 2.586 2.506 3.716l-0.055-0.073c-2.243-0.503-4.204-1.485-5.85-2.837l0.024 0.019zM19.014 29.675c0.896-1.144 1.761-2.43 2.533-3.776l0.084-0.159c1.406 0.213 2.625 0.484 3.811 0.83l-0.204-0.051c-1.707 1.51-3.809 2.614-6.131 3.138l-0.093 0.018zM26.803 24.906c-1.161-0.394-2.579-0.753-4.033-1.010l-0.182-0.027q1.589-3.444 1.916-6.87h5.461c-0.218 3.033-1.376 5.759-3.18 7.929l0.018-0.023z"></path>
</symbol>
<symbol id="icon-facebook" viewBox="0 0 32 32">
<path d="M21.329 5.313h2.921v-5.088c-0.504-0.069-2.237-0.225-4.256-0.225-4.212 0-7.097 2.649-7.097 7.519v4.481h-4.648v5.688h4.648v14.312h5.699v-14.311h4.46l0.708-5.688h-5.169v-3.919c0.001-1.644 0.444-2.769 2.735-2.769z"></path>
</symbol>
<symbol id="icon-instagram" viewBox="0 0 32 32">
<path d="M31.969 9.408c-0.075-1.7-0.35-2.869-0.744-3.882-0.406-1.075-1.032-2.038-1.851-2.838-0.8-0.813-1.769-1.444-2.832-1.844-1.019-0.394-2.182-0.669-3.882-0.744-1.713-0.081-2.257-0.1-6.601-0.1s-4.888 0.019-6.595 0.094c-1.7 0.075-2.869 0.35-3.882 0.744-1.075 0.406-2.038 1.031-2.838 1.85-0.813 0.8-1.444 1.769-1.844 2.832-0.394 1.019-0.669 2.182-0.744 3.882-0.081 1.713-0.1 2.257-0.1 6.601s0.019 4.888 0.094 6.595c0.075 1.7 0.35 2.869 0.744 3.882 0.406 1.075 1.038 2.038 1.85 2.838 0.8 0.813 1.769 1.444 2.832 1.844 1.019 0.394 2.182 0.669 3.882 0.744 1.706 0.075 2.25 0.094 6.595 0.094s4.888-0.019 6.595-0.094c1.7-0.075 2.869-0.35 3.882-0.744 2.151-0.832 3.851-2.532 4.682-4.682 0.394-1.019 0.669-2.182 0.744-3.882 0.075-1.707 0.094-2.251 0.094-6.595s-0.006-4.888-0.081-6.595zM29.087 22.473c-0.069 1.563-0.331 2.407-0.55 2.969-0.538 1.394-1.644 2.5-3.038 3.038-0.563 0.219-1.413 0.481-2.969 0.55-1.688 0.075-2.194 0.094-6.464 0.094s-4.782-0.019-6.464-0.094c-1.563-0.069-2.407-0.331-2.969-0.55-0.694-0.256-1.325-0.663-1.838-1.194-0.531-0.519-0.938-1.144-1.194-1.838-0.219-0.563-0.481-1.413-0.55-2.969-0.075-1.688-0.094-2.194-0.094-6.464s0.019-4.782 0.094-6.464c0.069-1.563 0.331-2.407 0.55-2.969 0.256-0.694 0.663-1.325 1.2-1.838 0.519-0.531 1.144-0.938 1.838-1.194 0.563-0.219 1.413-0.481 2.969-0.55 1.688-0.075 2.194-0.094 6.464-0.094 4.276 0 4.782 0.019 6.464 0.094 1.563 0.069 2.407 0.331 2.969 0.55 0.694 0.256 1.325 0.662 1.838 1.194 0.531 0.519 0.938 1.144 1.194 1.838 0.219 0.563 0.481 1.413 0.55 2.969 0.075 1.688 0.094 2.194 0.094 6.464s-0.019 4.77-0.094 6.458z"></path>
<path d="M16.059 7.783c-4.538 0-8.22 3.682-8.22 8.22s3.682 8.22 8.22 8.22c4.539 0 8.22-3.682 8.22-8.22s-3.682-8.22-8.22-8.22zM16.059 21.335c-2.944 0-5.332-2.388-5.332-5.332s2.388-5.332 5.332-5.332c2.944 0 5.332 2.388 5.332 5.332s-2.388 5.332-5.332 5.332z"></path>
<path d="M26.524 7.458c0 1.060-0.859 1.919-1.919 1.919s-1.919-0.859-1.919-1.919c0-1.060 0.859-1.919 1.919-1.919s1.919 0.859 1.919 1.919z"></path>
</symbol>
<symbol id="menu-burger" viewBox="0 0 40 40">
<path d="M8 14.667V12h24v2.667H8zm0 6.666h24v-2.666H8v2.666zM8 28h24v-2.667H8V28z"></path>
</symbol>
<symbol id="icon-human" viewBox="0 0 32 32">
<path d="M12.029 23.836c-0.070-0.029-0.14-0.049-0.206-0.082-0.325-0.173-0.523-0.428-0.523-0.81 0-0.568 0-1.135 0-1.703 0-0.062 0-0.123 0-0.202-0.416 0-0.81 0-1.21 0-0.416 0-0.769-0.276-0.864-0.683-0.016-0.070-0.021-0.144-0.021-0.218 0-1.539 0-3.077 0-4.616 0-1.596 1.201-2.814 2.798-2.839 0.239-0.004 0.477 0 0.716 0 0.296 0 0.518-0.132 0.629-0.407 0.111-0.284 0.045-0.531-0.181-0.741-0.551-0.51-0.922-1.123-1.008-1.88-0.070-0.605 0.103-1.168 0.383-1.699 0.555-1.045 1.794-1.65 2.958-1.514 1.925 0.226 3.369 2.559 2.016 4.628-0.132 0.202-0.296 0.387-0.465 0.564-0.181 0.193-0.247 0.407-0.152 0.654 0.099 0.247 0.288 0.387 0.564 0.391 0.329 0.004 0.658-0.004 0.987 0.012 1.44 0.086 2.592 1.296 2.596 2.74 0.008 1.584 0.004 3.168 0 4.752 0 0.485-0.366 0.848-0.852 0.852-0.403 0-0.806 0-1.226 0-0.004 0.082-0.016 0.152-0.016 0.222 0 0.543 0 1.090 0 1.633 0 0.498-0.181 0.749-0.65 0.913-0.016 0.004-0.025 0.020-0.041 0.029-2.078 0.004-4.155 0.004-6.233 0.004zM11.984 19.269c0 1.181 0 2.361 0 3.542 0 0.325 0.012 0.337 0.333 0.337 1.892 0.004 3.781 0.004 5.673 0.004 0.263 0 0.288-0.025 0.288-0.296 0-2.32 0-4.645 0-6.965 0-0.428 0-0.428 0.424-0.428 0.259 0 0.255 0 0.255 0.259 0 1.477 0 2.954-0.004 4.427 0 0.169 0.049 0.214 0.214 0.21 0.317-0.012 0.638 0 0.954-0.004 0.202 0 0.259-0.053 0.259-0.247 0-1.563 0.008-3.123-0.004-4.686-0.008-1.029-0.703-1.86-1.72-2.024-0.387-0.062-0.79-0.033-1.189-0.041-0.646-0.012-1.144-0.403-1.259-1.028-0.090-0.498 0.045-0.934 0.42-1.284 0.403-0.379 0.671-0.839 0.716-1.391 0.136-1.646-1.21-2.756-2.649-2.518-1.279 0.21-1.847 1.267-1.794 2.341 0.029 0.597 0.325 1.078 0.732 1.493 0.313 0.317 0.465 0.683 0.444 1.135-0.033 0.613-0.506 1.164-1.119 1.23-0.333 0.033-0.666 0.021-1.004 0.029-1.168 0.021-2.057 0.901-2.065 2.069-0.012 1.563-0.004 3.123-0.004 4.686 0 0.189 0.053 0.243 0.243 0.243 0.329 0 0.658-0.008 0.987 0.004 0.152 0.004 0.193-0.045 0.193-0.193-0.008-0.736-0.004-1.477-0.004-2.213 0-0.773 0.004-1.543 0-2.316 0-0.132 0.041-0.185 0.173-0.173 0.107 0.008 0.218 0.012 0.325 0 0.156-0.016 0.189 0.045 0.189 0.193-0.012 1.197-0.008 2.398-0.008 3.604z"></path>
<path d="M14.987 21.030c-0.21-0.095-0.403-0.177-0.592-0.263 0.078-0.263 0.169-0.514 0.222-0.769 0.136-0.642 0.091-1.288-0.016-1.93-0.128-0.749-0.292-1.493-0.251-2.259 0.033-0.65 0.247-1.23 0.691-1.716 0.045-0.049 0.082-0.107 0.128-0.173 0.177 0.189 0.321 0.346 0.477 0.514-0.296 0.276-0.514 0.638-0.547 1.066-0.033 0.387-0.025 0.782 0.012 1.168 0.078 0.823 0.21 1.642 0.28 2.464 0.045 0.572-0.078 1.127-0.3 1.658-0.029 0.078-0.062 0.148-0.103 0.239z"></path>
</symbol>
<symbol id="icon-arrow-to-top" viewBox="0 0 16 32">
<path  d="M15.662 15.122l-13.703-14.76c-0.449-0.483-1.176-0.482-1.624 0.003s-0.447 1.27 0.002 1.754l12.887 13.882-12.888 13.881c-0.449 0.484-0.45 1.269-0.002 1.754 0.225 0.243 0.519 0.365 0.813 0.365s0.587-0.121 0.811-0.362l13.703-14.76c0.216-0.232 0.338-0.549 0.338-0.878s-0.122-0.645-0.338-0.878z"></path>
</symbol>
<symbol id="icon-react" viewBox="0 0 32 32">
<path d="M26.137 11.075c-0.337-0.113-0.675-0.219-1.012-0.319 0.056-0.231 0.106-0.463 0.156-0.694 0.769-3.725 0.262-6.719-1.444-7.706-1.644-0.944-4.325 0.038-7.038 2.4-0.269 0.231-0.531 0.475-0.781 0.719-0.169-0.162-0.344-0.325-0.519-0.481-2.844-2.525-5.694-3.587-7.4-2.594-1.638 0.95-2.125 3.769-1.438 7.294 0.069 0.35 0.144 0.694 0.231 1.044-0.4 0.113-0.794 0.238-1.163 0.369-3.337 1.156-5.731 2.981-5.731 4.869 0 1.95 2.55 3.906 6.019 5.094 0.281 0.094 0.563 0.188 0.85 0.269-0.094 0.375-0.175 0.744-0.25 1.125-0.656 3.469-0.144 6.219 1.494 7.162 1.688 0.975 4.525-0.025 7.287-2.444 0.219-0.194 0.438-0.394 0.656-0.606 0.275 0.269 0.563 0.525 0.85 0.775 2.675 2.3 5.319 3.231 6.95 2.288 1.688-0.975 2.238-3.931 1.525-7.531-0.056-0.275-0.119-0.556-0.188-0.844 0.2-0.056 0.394-0.119 0.587-0.181 3.606-1.194 6.219-3.125 6.219-5.106 0-1.894-2.462-3.731-5.863-4.9zM17.681 5.769c2.325-2.025 4.494-2.819 5.481-2.25 1.056 0.606 1.462 3.056 0.8 6.275-0.044 0.213-0.087 0.419-0.144 0.625-1.387-0.313-2.794-0.537-4.206-0.662-0.813-1.162-1.7-2.275-2.663-3.319 0.244-0.231 0.481-0.45 0.731-0.669zM9.556 17.587c0.287 0.55 0.581 1.094 0.894 1.631 0.319 0.544 0.644 1.087 0.988 1.619-0.975-0.106-1.944-0.262-2.9-0.469 0.275-0.9 0.619-1.831 1.019-2.781zM9.556 14.425c-0.394-0.931-0.725-1.844-1-2.725 0.9-0.2 1.856-0.363 2.85-0.488-0.331 0.519-0.656 1.050-0.963 1.588-0.306 0.531-0.606 1.075-0.887 1.625zM10.269 16.006c0.412-0.863 0.863-1.706 1.338-2.537s0.988-1.637 1.525-2.431c0.938-0.069 1.894-0.106 2.869-0.106s1.938 0.037 2.869 0.106c0.531 0.787 1.038 1.594 1.519 2.419s0.931 1.669 1.356 2.525c-0.419 0.862-0.869 1.713-1.35 2.55-0.475 0.831-0.981 1.637-1.512 2.438-0.931 0.069-1.9 0.1-2.881 0.1s-1.931-0.031-2.85-0.087c-0.544-0.794-1.056-1.606-1.537-2.438s-0.925-1.675-1.344-2.538zM21.556 19.206c0.319-0.55 0.619-1.106 0.913-1.669 0.4 0.906 0.75 1.825 1.056 2.769-0.969 0.219-1.95 0.387-2.938 0.5 0.337-0.525 0.656-1.063 0.969-1.6zM22.456 14.425c-0.294-0.55-0.594-1.1-0.906-1.637-0.306-0.531-0.625-1.056-0.956-1.575 1.006 0.125 1.969 0.294 2.869 0.5-0.288 0.925-0.625 1.825-1.006 2.713zM16.012 7.394c0.656 0.712 1.275 1.462 1.85 2.237-1.238-0.056-2.481-0.056-3.719 0 0.613-0.806 1.244-1.556 1.869-2.237zM8.762 3.563c1.050-0.612 3.381 0.263 5.838 2.438 0.156 0.138 0.313 0.287 0.475 0.438-0.969 1.044-1.863 2.156-2.681 3.319-1.412 0.125-2.813 0.344-4.2 0.65-0.081-0.319-0.15-0.644-0.219-0.969-0.588-3.025-0.2-5.306 0.787-5.875zM7.231 20.038c-0.263-0.075-0.519-0.156-0.775-0.244-1.331-0.419-2.844-1.081-3.938-1.95-0.631-0.438-1.056-1.113-1.175-1.869 0-1.144 1.975-2.606 4.825-3.6 0.356-0.125 0.719-0.238 1.081-0.344 0.425 1.356 0.938 2.688 1.531 3.975-0.6 1.306-1.119 2.656-1.55 4.031zM14.519 26.163c-1.031 0.944-2.225 1.694-3.525 2.206-0.694 0.331-1.494 0.363-2.206 0.081-0.994-0.575-1.406-2.781-0.844-5.75 0.069-0.35 0.144-0.7 0.231-1.044 1.4 0.3 2.813 0.506 4.244 0.613 0.825 1.169 1.731 2.288 2.7 3.337-0.2 0.194-0.4 0.381-0.6 0.556zM16.050 24.644c-0.637-0.688-1.275-1.45-1.894-2.269 0.6 0.025 1.219 0.038 1.844 0.038 0.644 0 1.275-0.012 1.9-0.044-0.575 0.794-1.194 1.55-1.85 2.275zM24.219 26.519c-0.056 0.762-0.431 1.475-1.031 1.956-0.994 0.575-3.113-0.175-5.4-2.137-0.262-0.225-0.525-0.469-0.794-0.719 0.956-1.056 1.837-2.175 2.637-3.35 1.431-0.119 2.856-0.337 4.262-0.656 0.063 0.256 0.119 0.512 0.169 0.762 0.306 1.35 0.356 2.756 0.156 4.144zM25.356 19.8c-0.175 0.056-0.35 0.113-0.531 0.163-0.438-1.363-0.975-2.694-1.594-3.988 0.6-1.275 1.106-2.588 1.531-3.931 0.325 0.094 0.637 0.194 0.938 0.294 2.913 1 4.956 2.487 4.956 3.625 0 1.225-2.181 2.806-5.3 3.838zM16 13.137c1.581 0 2.863 1.281 2.863 2.863s-1.281 2.863-2.863 2.863c-1.581 0-2.863-1.281-2.863-2.863s1.281-2.863 2.863-2.863z"></path>
</symbol>
<symbol id="icon-search" viewBox="0 0 32 32">
<path d="M31.008 27.231l-7.58-6.447c-0.784-0.705-1.622-1.029-2.299-0.998 1.789-2.096 2.87-4.815 2.87-7.787 0-6.627-5.373-12-12-12s-12 5.373-12 12 5.373 12 12 12c2.972 0 5.691-1.081 7.787-2.87-0.031 0.677 0.293 1.515 0.998 2.299l6.447 7.58c1.104 1.226 2.907 1.33 4.007 0.23s0.997-2.903-0.23-4.007zM12 20c-4.418 0-8-3.582-8-8s3.582-8 8-8 8 3.582 8 8-3.582 8-8 8z"></path>
</symbol>


</defs>
</svg>